{
  "accessors": [
    {
      "bufferView": 0,
      "componentType": 5126,
      "count": 96,
      "type": "VEC3",
      "max": [
        47.990470886230469,
        19.701301574707031,
        96.110298156738281
      ],
      "min": [
        -47.962638854980469,
        -20.0368595123291,
        0.28337860107421875
      ]
    },
    {
      "bufferView": 1,
      "componentType": 5126,
      "count": 96,
      "type": "VEC3",
      "max": [
        0.70710736513137817,
        0.70710688829422,
        1.0
      ],
      "min": [
        -0.7071073055267334,
        -0.70710724592208862,
        -1.0
      ]
    },
    {
      "bufferView": 2,
      "componentType": 5126,
      "count": 96,
      "type": "VEC2",
      "max": [
        1.0,
        1.0
      ],
      "min": [
        0.0,
        0.0
      ]
    },
    {
      "bufferView": 3,
      "componentType": 5125,
      "count": 144,
      "type": "SCALAR",
      "max": [
        95.0
      ],
      "min": [
        0.0
      ]
    },
    {
      "bufferView": 4,
      "componentType": 5126,
      "count": 328,
      "type": "VEC3",
      "max": [
        50.88433837890625,
        23.017875671386719,
        101.69416046142578
      ],
      "min": [
        -50.85650634765625,
        -13.705672264099121,
        12.701904296875
      ]
    },
    {
      "bufferView": 5,
      "componentType": 5126,
      "count": 328,
      "type": "VEC3",
      "max": [
        0.70960503816604614,
        0.70761144161224365,
        1.0
      ],
      "min": [
        -0.70960569381713867,
        -0.70712006092071533,
        -1.0
      ]
    },
    {
      "bufferView": 6,
      "componentType": 5126,
      "count": 328,
      "type": "VEC2",
      "max": [
        0.0,
        1.0
      ],
      "min": [
        0.0,
        0.0
      ]
    },
    {
      "bufferView": 7,
      "componentType": 5125,
      "count": 864,
      "type": "SCALAR",
      "max": [
        327.0
      ],
      "min": [
        0.0
      ]
    },
    {
      "bufferView": 8,
      "componentType": 5126,
      "count": 364,
      "type": "VEC3",
      "max": [
        49.553207397460938,
        21.725700378417969,
        104.23468017578125
      ],
      "min": [
        -49.525375366210938,
        -19.547372817993164,
        0.44588470458984375
      ]
    },
    {
      "bufferView": 9,
      "componentType": 5126,
      "count": 364,
      "type": "VEC3",
      "max": [
        0.743811309337616,
        0.99998760223388672,
        1.0
      ],
      "min": [
        -0.74381136894226074,
        -0.9288715124130249,
        -1.0
      ]
    },
    {
      "bufferView": 10,
      "componentType": 5126,
      "count": 364,
      "type": "VEC2",
      "max": [
        1.0,
        1.0
      ],
      "min": [
        0.0,
        0.0
      ]
    },
    {
      "bufferView": 11,
      "componentType": 5125,
      "count": 792,
      "type": "SCALAR",
      "max": [
        363.0
      ],
      "min": [
        0.0
      ]
    }
  ],
  "asset": {
    "generator": "Plattar UnityGLTF (2021.3.22f1)",
    "version": "2.0"
  },
  "buffers": [
    {
      "uri": "A910.bin",
      "byteLength": 32416
    }
  ],
  "bufferViews": [
    {
      "buffer": 0,
      "byteLength": 1152
    },
    {
      "buffer": 0,
      "byteOffset": 1152,
      "byteLength": 1152
    },
    {
      "buffer": 0,
      "byteOffset": 2304,
      "byteLength": 768
    },
    {
      "buffer": 0,
      "byteOffset": 3072,
      "byteLength": 576
    },
    {
      "buffer": 0,
      "byteOffset": 3648,
      "byteLength": 3936
    },
    {
      "buffer": 0,
      "byteOffset": 7584,
      "byteLength": 3936
    },
    {
      "buffer": 0,
      "byteOffset": 11520,
      "byteLength": 2624
    },
    {
      "buffer": 0,
      "byteOffset": 14144,
      "byteLength": 3456
    },
    {
      "buffer": 0,
      "byteOffset": 17600,
      "byteLength": 4368
    },
    {
      "buffer": 0,
      "byteOffset": 21968,
      "byteLength": 4368
    },
    {
      "buffer": 0,
      "byteOffset": 26336,
      "byteLength": 2912
    },
    {
      "buffer": 0,
      "byteOffset": 29248,
      "byteLength": 3168
    }
  ],
  "materials": [
    {
      "pbrMetallicRoughness": {
        "baseColorFactor": [
          0.542452753,
          0.713284254,
          1.0,
          1.0
        ],
        "metallicFactor": 0.0,
        "roughnessFactor": 0.0
      },
      "doubleSided": true,
      "name": "Blue"
    },
    {
      "pbrMetallicRoughness": {
        "baseColorFactor": [
          0.6037736,
          0.6037736,
          0.6037736,
          1.0
        ],
        "metallicFactor": 0.0,
        "roughnessFactor": 0.0
      },
      "doubleSided": true,
      "name": "Gray"
    },
    {
      "pbrMetallicRoughness": {
        "metallicFactor": 0.0,
        "roughnessFactor": 0.0
      },
      "doubleSided": true,
      "name": "White"
    }
  ],
  "meshes": [
    {
      "primitives": [
        {
          "attributes": {
            "POSITION": 0,
            "NORMAL": 1,
            "TEXCOORD_0": 2
          },
          "indices": 3,
          "material": 0
        }
      ],
      "name": "Blue"
    },
    {
      "primitives": [
        {
          "attributes": {
            "POSITION": 4,
            "NORMAL": 5,
            "TEXCOORD_0": 6
          },
          "indices": 7,
          "material": 1
        }
      ],
      "name": "Gray"
    },
    {
      "primitives": [
        {
          "attributes": {
            "POSITION": 8,
            "NORMAL": 9,
            "TEXCOORD_0": 10
          },
          "indices": 11,
          "material": 2
        }
      ],
      "name": "White"
    }
  ],
  "nodes": [
    {
      "children": [
        1,
        2,
        3
      ],
      "rotation": [
        0.0,
        0.0,
        0.0,
        -1.0
      ],
      "name": "A9-10"
    },
    {
      "mesh": 0,
      "rotation": [
        -0.7071068,
        0.0,
        0.0,
        -0.7071068
      ],
      "scale": [
        0.0254,
        0.0254,
        0.0254
      ],
      "name": "Blue"
    },
    {
      "mesh": 1,
      "rotation": [
        -0.7071068,
        0.0,
        0.0,
        -0.7071068
      ],
      "scale": [
        0.0254,
        0.0254,
        0.0254
      ],
      "name": "Gray"
    },
    {
      "mesh": 2,
      "rotation": [
        -0.7071068,
        0.0,
        0.0,
        -0.7071068
      ],
      "scale": [
        0.0254,
        0.0254,
        0.0254
      ],
      "name": "White"
    }
  ],
  "scene": 0,
  "scenes": [
    {
      "nodes": [
        0
      ],
      "name": "A910"
    }
  ]
}