{
  "extensionsUsed": [
    "KHR_materials_common"
  ],
  "accessors": [
    {
      "bufferView": 0,
      "componentType": 5126,
      "count": 66,
      "type": "VEC3",
      "max": [
        2.6963000297546387,
        83.2354965209961,
        -19.611499786376953
      ],
      "min": [
        -2.6698999404907227,
        79.398597717285156,
        -24.977699279785156
      ]
    },
    {
      "bufferView": 1,
      "componentType": 5126,
      "count": 66,
      "type": "VEC3",
      "max": [
        0.99919170141220093,
        0.99999988079071045,
        0.95035171508789063
      ],
      "min": [
        -0.99919170141220093,
        -0.9567418098449707,
        -0.95055735111236572
      ]
    },
    {
      "bufferView": 2,
      "componentType": 5126,
      "count": 66,
      "type": "VEC4",
      "max": [
        1.0,
        0.10100016742944717,
        0.96589165925979614,
        1.0
      ],
      "min": [
        -0.96592903137207031,
        -0.10095878690481186,
        -1.0,
        -1.0
      ]
    },
    {
      "bufferView": 3,
      "componentType": 5126,
      "count": 66,
      "type": "VEC2",
      "max": [
        1.0,
        1.0
      ],
      "min": [
        -0.083300001919269562,
        0.0
      ]
    },
    {
      "bufferView": 4,
      "componentType": 5125,
      "count": 171,
      "type": "SCALAR",
      "max": [
        65.0
      ],
      "min": [
        0.0
      ]
    },
    {
      "bufferView": 5,
      "componentType": 5126,
      "count": 16,
      "type": "VEC3",
      "max": [
        2.2832000255584717,
        94.406097412109375,
        2.1735999584198
      ],
      "min": [
        -2.2767000198364258,
        91.907501220703125,
        -2.2783000469207764
      ]
    },
    {
      "bufferView": 6,
      "componentType": 5126,
      "count": 16,
      "type": "VEC3",
      "max": [
        1.0,
        0.00059999997029080987,
        0.99999988079071045
      ],
      "min": [
        -1.0,
        -0.00059999997029080987,
        -0.99999988079071045
      ]
    },
    {
      "bufferView": 7,
      "componentType": 5126,
      "count": 16,
      "type": "VEC4",
      "max": [
        1.0,
        0.0,
        0.0,
        -1.0
      ],
      "min": [
        1.0,
        0.0,
        0.0,
        -1.0
      ]
    },
    {
      "bufferView": 8,
      "componentType": 5126,
      "count": 16,
      "type": "VEC2",
      "max": [
        0.74659997224807739,
        1.0
      ],
      "min": [
        0.50019997358322144,
        1.0
      ]
    },
    {
      "bufferView": 9,
      "componentType": 5125,
      "count": 48,
      "type": "SCALAR",
      "max": [
        15.0
      ],
      "min": [
        0.0
      ]
    },
    {
      "bufferView": 10,
      "componentType": 5126,
      "count": 1803,
      "type": "VEC3",
      "max": [
        31.826799392700195,
        94.851402282714844,
        62.623500823974609
      ],
      "min": [
        -31.825300216674805,
        7.5205001831054688,
        -62.581199645996094
      ]
    },
    {
      "bufferView": 11,
      "componentType": 5126,
      "count": 1803,
      "type": "VEC3",
      "max": [
        1.0,
        1.0,
        0.99999988079071045
      ],
      "min": [
        -1.0,
        -1.0,
        -1.0
      ]
    },
    {
      "bufferView": 12,
      "componentType": 5126,
      "count": 1803,
      "type": "VEC4",
      "max": [
        1.0,
        0.2174261063337326,
        0.99254578351974487,
        1.0
      ],
      "min": [
        -0.986544668674469,
        -0.28817373514175415,
        -0.99258524179458618,
        -1.0
      ]
    },
    {
      "bufferView": 13,
      "componentType": 5126,
      "count": 1803,
      "type": "VEC2",
      "max": [
        1.0,
        1.0
      ],
      "min": [
        0.0,
        0.0
      ]
    },
    {
      "bufferView": 14,
      "componentType": 5125,
      "count": 4266,
      "type": "SCALAR",
      "max": [
        1802.0
      ],
      "min": [
        0.0
      ]
    },
    {
      "bufferView": 15,
      "componentType": 5126,
      "count": 22,
      "type": "VEC3",
      "max": [
        88.972602844238281,
        0.0,
        139.31559753417969
      ],
      "min": [
        -88.972602844238281,
        0.0,
        -87.865898132324219
      ]
    },
    {
      "bufferView": 16,
      "componentType": 5126,
      "count": 22,
      "type": "VEC3",
      "max": [
        0.0,
        1.0,
        0.0
      ],
      "min": [
        0.0,
        1.0,
        0.0
      ]
    },
    {
      "bufferView": 17,
      "componentType": 5126,
      "count": 22,
      "type": "VEC4",
      "max": [
        1.0,
        0.0,
        0.0,
        -1.0
      ],
      "min": [
        1.0,
        0.0,
        0.0,
        -1.0
      ]
    },
    {
      "bufferView": 18,
      "componentType": 5126,
      "count": 22,
      "type": "VEC2",
      "max": [
        0.95599997043609619,
        1.0
      ],
      "min": [
        0.0,
        1.0
      ]
    },
    {
      "bufferView": 19,
      "componentType": 5125,
      "count": 60,
      "type": "SCALAR",
      "max": [
        21.0
      ],
      "min": [
        0.0
      ]
    },
    {
      "bufferView": 20,
      "componentType": 5126,
      "count": 75,
      "type": "VEC3",
      "max": [
        30.12299919128418,
        29.375299453735352,
        60.603099822998047
      ],
      "min": [
        -30.121799468994141,
        7.5584001541137695,
        -60.605899810791016
      ]
    },
    {
      "bufferView": 21,
      "componentType": 5126,
      "count": 75,
      "type": "VEC3",
      "max": [
        0.98988133668899536,
        1.0,
        0.98106223344802856
      ],
      "min": [
        -0.98986732959747314,
        -0.56868082284927368,
        -0.98106223344802856
      ]
    },
    {
      "bufferView": 22,
      "componentType": 5126,
      "count": 75,
      "type": "VEC4",
      "max": [
        1.0,
        0.0,
        0.0,
        -1.0
      ],
      "min": [
        1.0,
        0.0,
        0.0,
        -1.0
      ]
    },
    {
      "bufferView": 23,
      "componentType": 5126,
      "count": 75,
      "type": "VEC2",
      "max": [
        0.0,
        0.0
      ],
      "min": [
        0.0,
        0.0
      ]
    },
    {
      "bufferView": 24,
      "componentType": 5125,
      "count": 183,
      "type": "SCALAR",
      "max": [
        74.0
      ],
      "min": [
        0.0
      ]
    },
    {
      "bufferView": 25,
      "componentType": 5126,
      "count": 102,
      "type": "VEC3",
      "max": [
        28.82080078125,
        79.659103393554688,
        59.164199829101563
      ],
      "min": [
        -28.818399429321289,
        33.828800201416016,
        -59.2047004699707
      ]
    },
    {
      "bufferView": 26,
      "componentType": 5126,
      "count": 102,
      "type": "VEC3",
      "max": [
        0.99993908405303955,
        0.98918497562408447,
        0.99999988079071045
      ],
      "min": [
        -0.99993908405303955,
        -0.00019999495998490602,
        -0.99999773502349854
      ]
    },
    {
      "bufferView": 27,
      "componentType": 5126,
      "count": 102,
      "type": "VEC4",
      "max": [
        1.0,
        0.0,
        0.883549153804779,
        1.0
      ],
      "min": [
        -0.070244058966636658,
        -0.9979439377784729,
        -0.883012592792511,
        -1.0
      ]
    },
    {
      "bufferView": 28,
      "componentType": 5126,
      "count": 102,
      "type": "VEC2",
      "max": [
        1.0,
        1.0
      ],
      "min": [
        0.0,
        0.0
      ]
    },
    {
      "bufferView": 29,
      "componentType": 5125,
      "count": 270,
      "type": "SCALAR",
      "max": [
        101.0
      ],
      "min": [
        0.0
      ]
    },
    {
      "bufferView": 30,
      "componentType": 5126,
      "count": 116,
      "type": "VEC3",
      "max": [
        27.100500106811523,
        73.4719009399414,
        61.671199798583984
      ],
      "min": [
        -27.10059928894043,
        12.578300476074219,
        -61.698001861572266
      ]
    },
    {
      "bufferView": 31,
      "componentType": 5126,
      "count": 116,
      "type": "VEC3",
      "max": [
        0.49067181348800659,
        0.53538984060287476,
        0.9955933690071106
      ],
      "min": [
        -0.49067181348800659,
        -0.24488753080368042,
        -0.9955933690071106
      ]
    },
    {
      "bufferView": 32,
      "componentType": 5126,
      "count": 116,
      "type": "VEC4",
      "max": [
        1.0,
        0.0,
        0.0,
        -1.0
      ],
      "min": [
        1.0,
        0.0,
        0.0,
        -1.0
      ]
    },
    {
      "bufferView": 33,
      "componentType": 5126,
      "count": 116,
      "type": "VEC2",
      "max": [
        0.0,
        0.0
      ],
      "min": [
        0.0,
        0.0
      ]
    },
    {
      "bufferView": 34,
      "componentType": 5125,
      "count": 276,
      "type": "SCALAR",
      "max": [
        115.0
      ],
      "min": [
        0.0
      ]
    },
    {
      "bufferView": 35,
      "componentType": 5126,
      "count": 56,
      "type": "VEC3",
      "max": [
        32.311199188232422,
        17.604799270629883,
        42.219898223876953
      ],
      "min": [
        -32.311199188232422,
        5.8218002319335938,
        -42.219898223876953
      ]
    },
    {
      "bufferView": 36,
      "componentType": 5126,
      "count": 56,
      "type": "VEC3",
      "max": [
        1.0,
        0.0,
        0.0
      ],
      "min": [
        -1.0,
        0.0,
        0.0
      ]
    },
    {
      "bufferView": 37,
      "componentType": 5126,
      "count": 56,
      "type": "VEC4",
      "max": [
        1.0,
        0.0,
        0.0,
        -1.0
      ],
      "min": [
        1.0,
        0.0,
        0.0,
        -1.0
      ]
    },
    {
      "bufferView": 38,
      "componentType": 5126,
      "count": 56,
      "type": "VEC2",
      "max": [
        0.4643000066280365,
        1.0
      ],
      "min": [
        0.0357000008225441,
        1.0
      ]
    },
    {
      "bufferView": 39,
      "componentType": 5125,
      "count": 144,
      "type": "SCALAR",
      "max": [
        55.0
      ],
      "min": [
        0.0
      ]
    },
    {
      "bufferView": 40,
      "componentType": 5126,
      "count": 756,
      "type": "VEC3",
      "max": [
        32.311199188232422,
        56.065101623535156,
        47.964599609375
      ],
      "min": [
        -32.311199188232422,
        -0.072599999606609344,
        -47.964599609375
      ]
    },
    {
      "bufferView": 41,
      "componentType": 5126,
      "count": 756,
      "type": "VEC3",
      "max": [
        1.0,
        0.99999988079071045,
        0.9957309365272522
      ],
      "min": [
        -1.0,
        -0.95672106742858887,
        -0.9957309365272522
      ]
    },
    {
      "bufferView": 42,
      "componentType": 5126,
      "count": 756,
      "type": "VEC4",
      "max": [
        1.0,
        0.99357211589813232,
        1.0,
        1.0
      ],
      "min": [
        -0.9800485372543335,
        -0.97492438554763794,
        -1.0,
        -1.0
      ]
    },
    {
      "bufferView": 43,
      "componentType": 5126,
      "count": 756,
      "type": "VEC2",
      "max": [
        112.20890045166016,
        80.557296752929688
      ],
      "min": [
        -56.102100372314453,
        -54.864200592041016
      ]
    },
    {
      "bufferView": 44,
      "componentType": 5125,
      "count": 2328,
      "type": "SCALAR",
      "max": [
        755.0
      ],
      "min": [
        0.0
      ]
    }
  ],
  "asset": {
    "generator": "Plattar UnityGLTF (2021.3.22f1)",
    "version": "2.0"
  },
  "buffers": [
    {
      "uri": "XBus_GTLF.bin",
      "byteLength": 175560
    }
  ],
  "bufferViews": [
    {
      "buffer": 0,
      "byteLength": 792
    },
    {
      "buffer": 0,
      "byteOffset": 792,
      "byteLength": 792
    },
    {
      "buffer": 0,
      "byteOffset": 1584,
      "byteLength": 1056
    },
    {
      "buffer": 0,
      "byteOffset": 2640,
      "byteLength": 528
    },
    {
      "buffer": 0,
      "byteOffset": 3168,
      "byteLength": 684
    },
    {
      "buffer": 0,
      "byteOffset": 3852,
      "byteLength": 192
    },
    {
      "buffer": 0,
      "byteOffset": 4044,
      "byteLength": 192
    },
    {
      "buffer": 0,
      "byteOffset": 4236,
      "byteLength": 256
    },
    {
      "buffer": 0,
      "byteOffset": 4492,
      "byteLength": 128
    },
    {
      "buffer": 0,
      "byteOffset": 4620,
      "byteLength": 192
    },
    {
      "buffer": 0,
      "byteOffset": 4812,
      "byteLength": 21636
    },
    {
      "buffer": 0,
      "byteOffset": 26448,
      "byteLength": 21636
    },
    {
      "buffer": 0,
      "byteOffset": 48084,
      "byteLength": 28848
    },
    {
      "buffer": 0,
      "byteOffset": 76932,
      "byteLength": 14424
    },
    {
      "buffer": 0,
      "byteOffset": 91356,
      "byteLength": 17064
    },
    {
      "buffer": 0,
      "byteOffset": 108420,
      "byteLength": 264
    },
    {
      "buffer": 0,
      "byteOffset": 108684,
      "byteLength": 264
    },
    {
      "buffer": 0,
      "byteOffset": 108948,
      "byteLength": 352
    },
    {
      "buffer": 0,
      "byteOffset": 109300,
      "byteLength": 176
    },
    {
      "buffer": 0,
      "byteOffset": 109476,
      "byteLength": 240
    },
    {
      "buffer": 0,
      "byteOffset": 109716,
      "byteLength": 900
    },
    {
      "buffer": 0,
      "byteOffset": 110616,
      "byteLength": 900
    },
    {
      "buffer": 0,
      "byteOffset": 111516,
      "byteLength": 1200
    },
    {
      "buffer": 0,
      "byteOffset": 112716,
      "byteLength": 600
    },
    {
      "buffer": 0,
      "byteOffset": 113316,
      "byteLength": 732
    },
    {
      "buffer": 0,
      "byteOffset": 114048,
      "byteLength": 1224
    },
    {
      "buffer": 0,
      "byteOffset": 115272,
      "byteLength": 1224
    },
    {
      "buffer": 0,
      "byteOffset": 116496,
      "byteLength": 1632
    },
    {
      "buffer": 0,
      "byteOffset": 118128,
      "byteLength": 816
    },
    {
      "buffer": 0,
      "byteOffset": 118944,
      "byteLength": 1080
    },
    {
      "buffer": 0,
      "byteOffset": 120024,
      "byteLength": 1392
    },
    {
      "buffer": 0,
      "byteOffset": 121416,
      "byteLength": 1392
    },
    {
      "buffer": 0,
      "byteOffset": 122808,
      "byteLength": 1856
    },
    {
      "buffer": 0,
      "byteOffset": 124664,
      "byteLength": 928
    },
    {
      "buffer": 0,
      "byteOffset": 125592,
      "byteLength": 1104
    },
    {
      "buffer": 0,
      "byteOffset": 126696,
      "byteLength": 672
    },
    {
      "buffer": 0,
      "byteOffset": 127368,
      "byteLength": 672
    },
    {
      "buffer": 0,
      "byteOffset": 128040,
      "byteLength": 896
    },
    {
      "buffer": 0,
      "byteOffset": 128936,
      "byteLength": 448
    },
    {
      "buffer": 0,
      "byteOffset": 129384,
      "byteLength": 576
    },
    {
      "buffer": 0,
      "byteOffset": 129960,
      "byteLength": 9072
    },
    {
      "buffer": 0,
      "byteOffset": 139032,
      "byteLength": 9072
    },
    {
      "buffer": 0,
      "byteOffset": 148104,
      "byteLength": 12096
    },
    {
      "buffer": 0,
      "byteOffset": 160200,
      "byteLength": 6048
    },
    {
      "buffer": 0,
      "byteOffset": 166248,
      "byteLength": 9312
    }
  ],
  "materials": [
    {
      "pbrMetallicRoughness": {
        "baseColorFactor": [
          0.509434,
          0.509434,
          0.509434,
          1.0
        ],
        "metallicFactor": 0.0,
        "roughnessFactor": 0.5
      },
      "doubleSided": true,
      "name": "GrayMetal"
    },
    {
      "pbrMetallicRoughness": {
        "baseColorFactor": [
          0.0,
          0.09174345,
          1.0,
          1.0
        ],
        "metallicFactor": 0.0,
        "roughnessFactor": 0.5
      },
      "doubleSided": true,
      "name": "Blue"
    },
    {
      "pbrMetallicRoughness": {
        "baseColorFactor": [
          0.9056604,
          0.9056604,
          0.9056604,
          1.0
        ],
        "metallicFactor": 0.0,
        "roughnessFactor": 0.5
      },
      "doubleSided": true,
      "name": "WhitePlastic"
    },
    {
      "pbrMetallicRoughness": {
        "baseColorFactor": [
          0.0,
          0.0,
          0.0,
          1.0
        ],
        "metallicFactor": 0.0
      },
      "doubleSided": true,
      "name": "BlackPlastic"
    },
    {
      "pbrMetallicRoughness": {
        "baseColorFactor": [
          0.08490568,
          0.08490568,
          0.08490568,
          1.0
        ],
        "metallicFactor": 0.0,
        "roughnessFactor": 0.0
      },
      "doubleSided": true,
      "name": "Glass"
    },
    {
      "commonConstant": {},
      "doubleSided": true,
      "name": "Light"
    }
  ],
  "meshes": [
    {
      "primitives": [
        {
          "attributes": {
            "POSITION": 0,
            "NORMAL": 1,
            "TANGENT": 2,
            "TEXCOORD_0": 3
          },
          "indices": 4,
          "material": 0
        }
      ],
      "name": "Antenna"
    },
    {
      "primitives": [
        {
          "attributes": {
            "POSITION": 5,
            "NORMAL": 6,
            "TANGENT": 7,
            "TEXCOORD_0": 8
          },
          "indices": 9,
          "material": 1
        }
      ],
      "name": "Blue"
    },
    {
      "primitives": [
        {
          "attributes": {
            "POSITION": 10,
            "NORMAL": 11,
            "TANGENT": 12,
            "TEXCOORD_0": 13
          },
          "indices": 14,
          "material": 2
        }
      ],
      "name": "Body_WhitePlastic_DONE"
    },
    {
      "primitives": [
        {
          "attributes": {
            "POSITION": 15,
            "NORMAL": 16,
            "TANGENT": 17,
            "TEXCOORD_0": 18
          },
          "indices": 19,
          "material": 1
        }
      ],
      "name": "Cylinder001"
    },
    {
      "primitives": [
        {
          "attributes": {
            "POSITION": 20,
            "NORMAL": 21,
            "TANGENT": 22,
            "TEXCOORD_0": 23
          },
          "indices": 24,
          "material": 3
        }
      ],
      "name": "Floor_WhitePlastic"
    },
    {
      "primitives": [
        {
          "attributes": {
            "POSITION": 25,
            "NORMAL": 26,
            "TANGENT": 27,
            "TEXCOORD_0": 28
          },
          "indices": 29,
          "material": 4
        }
      ],
      "name": "Glass"
    },
    {
      "primitives": [
        {
          "attributes": {
            "POSITION": 30,
            "NORMAL": 31,
            "TANGENT": 32,
            "TEXCOORD_0": 33
          },
          "indices": 34,
          "material": 5
        }
      ],
      "name": "Light"
    },
    {
      "primitives": [
        {
          "attributes": {
            "POSITION": 35,
            "NORMAL": 36,
            "TANGENT": 37,
            "TEXCOORD_0": 38
          },
          "indices": 39,
          "material": 0
        }
      ],
      "name": "Rim"
    },
    {
      "primitives": [
        {
          "attributes": {
            "POSITION": 40,
            "NORMAL": 41,
            "TANGENT": 42,
            "TEXCOORD_0": 43
          },
          "indices": 44,
          "material": 3
        }
      ],
      "name": "Wheel"
    }
  ],
  "nodes": [
    {
      "children": [
        1,
        2,
        3,
        4,
        5,
        6,
        7,
        8,
        9
      ],
      "rotation": [
        0.0,
        0.0,
        0.0,
        -1.0
      ],
      "scale": [
        0.02614205,
        0.02614205,
        0.02614205
      ],
      "name": "XBus_GTLF"
    },
    {
      "mesh": 0,
      "rotation": [
        0.0,
        0.0,
        0.0,
        -1.0
      ],
      "name": "Antenna"
    },
    {
      "mesh": 1,
      "rotation": [
        0.0,
        0.0,
        0.0,
        -1.0
      ],
      "name": "Blue"
    },
    {
      "mesh": 2,
      "rotation": [
        0.0,
        0.0,
        0.0,
        -1.0
      ],
      "name": "Body_WhitePlastic_DONE"
    },
    {
      "mesh": 3,
      "rotation": [
        0.0,
        0.0,
        0.0,
        -1.0
      ],
      "translation": [
        0.0,
        1.0,
        0.0
      ],
      "name": "Cylinder001"
    },
    {
      "mesh": 4,
      "rotation": [
        0.0,
        0.0,
        0.0,
        -1.0
      ],
      "name": "Floor_WhitePlastic"
    },
    {
      "mesh": 5,
      "rotation": [
        0.0,
        0.0,
        0.0,
        -1.0
      ],
      "name": "Glass"
    },
    {
      "mesh": 6,
      "rotation": [
        0.0,
        0.0,
        0.0,
        -1.0
      ],
      "name": "Light"
    },
    {
      "mesh": 7,
      "rotation": [
        0.0,
        0.0,
        0.0,
        -1.0
      ],
      "name": "Rim"
    },
    {
      "mesh": 8,
      "rotation": [
        0.0,
        0.0,
        0.0,
        -1.0
      ],
      "name": "Wheel"
    }
  ],
  "scene": 0,
  "scenes": [
    {
      "nodes": [
        0
      ],
      "name": "XBus_GTLF"
    }
  ]
}