{
  "accessors": [
    {
      "bufferView": 0,
      "componentType": 5126,
      "count": 16,
      "type": "VEC3",
      "max": [
        2.276763916015625,
        2.1736505031585693,
        -91.9074935913086
      ],
      "min": [
        -2.2831919193267822,
        -2.2783277034759521,
        -94.40606689453125
      ]
    },
    {
      "bufferView": 1,
      "componentType": 5126,
      "count": 16,
      "type": "VEC3",
      "max": [
        1.0,
        1.0,
        0.0
      ],
      "min": [
        -1.0,
        -1.0,
        0.0
      ]
    },
    {
      "bufferView": 2,
      "componentType": 5126,
      "count": 16,
      "type": "VEC4",
      "max": [
        1.0,
        0.0,
        0.0,
        1.0
      ],
      "min": [
        1.0,
        0.0,
        0.0,
        1.0
      ]
    },
    {
      "bufferView": 3,
      "componentType": 5126,
      "count": 16,
      "type": "VEC2",
      "max": [
        0.74657654762268066,
        0.0
      ],
      "min": [
        0.5002092719078064,
        0.0
      ]
    },
    {
      "bufferView": 4,
      "componentType": 5121,
      "count": 48,
      "type": "SCALAR",
      "max": [
        15.0
      ],
      "min": [
        0.0
      ]
    },
    {
      "bufferView": 5,
      "componentType": 5126,
      "count": 1873,
      "type": "VEC3",
      "max": [
        31.825326919555664,
        62.6235237121582,
        -7.5205378532409668
      ],
      "min": [
        -31.826789855957031,
        -62.5811882019043,
        -94.851364135742188
      ]
    },
    {
      "bufferView": 6,
      "componentType": 5126,
      "count": 1873,
      "type": "VEC3",
      "max": [
        1.0,
        1.0,
        1.0
      ],
      "min": [
        -1.0,
        -1.0,
        -1.0
      ]
    },
    {
      "bufferView": 7,
      "componentType": 5126,
      "count": 1873,
      "type": "VEC4",
      "max": [
        1.0,
        0.98589479923248291,
        0.21543325483798981,
        1.0
      ],
      "min": [
        -0.98648643493652344,
        -1.0,
        -0.42789649963378906,
        -1.0
      ]
    },
    {
      "bufferView": 8,
      "componentType": 5126,
      "count": 1873,
      "type": "VEC2",
      "max": [
        1.0,
        1.0
      ],
      "min": [
        -0.083333313465118408,
        0.0
      ]
    },
    {
      "bufferView": 9,
      "componentType": 5123,
      "count": 4443,
      "type": "SCALAR",
      "max": [
        1872.0
      ],
      "min": [
        0.0
      ]
    },
    {
      "bufferView": 10,
      "componentType": 5126,
      "count": 75,
      "type": "VEC3",
      "max": [
        30.121818542480469,
        60.603080749511719,
        -7.5584039688110352
      ],
      "min": [
        -30.122991561889648,
        -60.605930328369141,
        -29.375278472900391
      ]
    },
    {
      "bufferView": 11,
      "componentType": 5126,
      "count": 75,
      "type": "VEC3",
      "max": [
        0.98988974094390869,
        0.98095184564590454,
        0.56894779205322266
      ],
      "min": [
        -0.989859402179718,
        -0.981173574924469,
        -1.0
      ]
    },
    {
      "bufferView": 12,
      "componentType": 5126,
      "count": 75,
      "type": "VEC4",
      "max": [
        1.0,
        0.0,
        0.0,
        1.0
      ],
      "min": [
        1.0,
        0.0,
        0.0,
        1.0
      ]
    },
    {
      "bufferView": 13,
      "componentType": 5126,
      "count": 75,
      "type": "VEC2",
      "max": [
        0.0,
        1.0
      ],
      "min": [
        0.0,
        1.0
      ]
    },
    {
      "bufferView": 14,
      "componentType": 5121,
      "count": 183,
      "type": "SCALAR",
      "max": [
        74.0
      ],
      "min": [
        0.0
      ]
    },
    {
      "bufferView": 15,
      "componentType": 5126,
      "count": 102,
      "type": "VEC3",
      "max": [
        28.818424224853516,
        59.164188385009766,
        -33.828823089599609
      ],
      "min": [
        -28.820793151855469,
        -59.204704284667969,
        -79.659095764160156
      ]
    },
    {
      "bufferView": 16,
      "componentType": 5126,
      "count": 102,
      "type": "VEC3",
      "max": [
        0.99993813037872314,
        0.999996542930603,
        0.00062284345040097833
      ],
      "min": [
        -0.99993896484375,
        -1.0,
        -0.98927116394042969
      ]
    },
    {
      "bufferView": 17,
      "componentType": 5126,
      "count": 102,
      "type": "VEC4",
      "max": [
        1.0,
        0.85332316160202026,
        0.0,
        1.0
      ],
      "min": [
        -0.070385470986366272,
        -0.85272723436355591,
        -0.99751967191696167,
        -1.0
      ]
    },
    {
      "bufferView": 18,
      "componentType": 5126,
      "count": 102,
      "type": "VEC2",
      "max": [
        1.0,
        1.0
      ],
      "min": [
        0.0,
        0.0
      ]
    },
    {
      "bufferView": 19,
      "componentType": 5121,
      "count": 270,
      "type": "SCALAR",
      "max": [
        101.0
      ],
      "min": [
        0.0
      ]
    },
    {
      "bufferView": 20,
      "componentType": 5126,
      "count": 116,
      "type": "VEC3",
      "max": [
        27.100667953491211,
        61.671218872070313,
        -12.578349113464355
      ],
      "min": [
        -27.100568771362305,
        -61.698020935058594,
        -73.471923828125
      ]
    },
    {
      "bufferView": 21,
      "componentType": 5126,
      "count": 116,
      "type": "VEC3",
      "max": [
        0.49066096544265747,
        0.99556255340576172,
        0.245439812541008
      ],
      "min": [
        -0.49068617820739746,
        -0.99563074111938477,
        -0.53592550754547119
      ]
    },
    {
      "bufferView": 22,
      "componentType": 5126,
      "count": 116,
      "type": "VEC4",
      "max": [
        1.0,
        0.0,
        0.0,
        1.0
      ],
      "min": [
        1.0,
        0.0,
        0.0,
        1.0
      ]
    },
    {
      "bufferView": 23,
      "componentType": 5126,
      "count": 116,
      "type": "VEC2",
      "max": [
        0.0,
        1.0
      ],
      "min": [
        0.0,
        1.0
      ]
    },
    {
      "bufferView": 24,
      "componentType": 5121,
      "count": 276,
      "type": "SCALAR",
      "max": [
        115.0
      ],
      "min": [
        0.0
      ]
    },
    {
      "bufferView": 25,
      "componentType": 5126,
      "count": 56,
      "type": "VEC3",
      "max": [
        32.311164855957031,
        42.219890594482422,
        -5.8218026161193848
      ],
      "min": [
        -32.311164855957031,
        -42.219890594482422,
        -17.604774475097656
      ]
    },
    {
      "bufferView": 26,
      "componentType": 5126,
      "count": 56,
      "type": "VEC3",
      "max": [
        1.0,
        0.0,
        0.0
      ],
      "min": [
        -1.0,
        0.0,
        0.0
      ]
    },
    {
      "bufferView": 27,
      "componentType": 5126,
      "count": 56,
      "type": "VEC4",
      "max": [
        1.0,
        0.0,
        0.0,
        1.0
      ],
      "min": [
        1.0,
        0.0,
        0.0,
        1.0
      ]
    },
    {
      "bufferView": 28,
      "componentType": 5126,
      "count": 56,
      "type": "VEC2",
      "max": [
        0.46428570151329041,
        0.0
      ],
      "min": [
        0.035714298486709595,
        0.0
      ]
    },
    {
      "bufferView": 29,
      "componentType": 5121,
      "count": 144,
      "type": "SCALAR",
      "max": [
        55.0
      ],
      "min": [
        0.0
      ]
    },
    {
      "bufferView": 30,
      "componentType": 5126,
      "count": 764,
      "type": "VEC3",
      "max": [
        32.311164855957031,
        47.9646110534668,
        0.072597503662109375
      ],
      "min": [
        -32.311164855957031,
        -47.9646110534668,
        -56.065059661865234
      ]
    },
    {
      "bufferView": 31,
      "componentType": 5126,
      "count": 764,
      "type": "VEC3",
      "max": [
        1.0,
        0.99572819471359253,
        0.95670950412750244
      ],
      "min": [
        -1.0,
        -0.99572831392288208,
        -0.99999988079071045
      ]
    },
    {
      "bufferView": 32,
      "componentType": 5126,
      "count": 764,
      "type": "VEC4",
      "max": [
        1.0,
        1.0,
        0.99357771873474121,
        1.0
      ],
      "min": [
        -0.98005163669586182,
        -1.0,
        -0.97546136379241943,
        -1.0
      ]
    },
    {
      "bufferView": 33,
      "componentType": 5126,
      "count": 764,
      "type": "VEC2",
      "max": [
        112.20890045166016,
        55.864200592041016
      ],
      "min": [
        -56.102127075195313,
        -79.557296752929688
      ]
    },
    {
      "bufferView": 34,
      "componentType": 5123,
      "count": 1296,
      "type": "SCALAR",
      "max": [
        355.0
      ],
      "min": [
        0.0
      ]
    },
    {
      "bufferView": 35,
      "componentType": 5123,
      "count": 1032,
      "type": "SCALAR",
      "max": [
        763.0
      ],
      "min": [
        6.0
      ]
    }
  ],
  "asset": {
    "version": "2.0"
  },
  "buffers": [
    {
      "uri": "Xbus2.bin",
      "byteLength": 158559
    }
  ],
  "bufferViews": [
    {
      "buffer": 0,
      "byteLength": 192
    },
    {
      "buffer": 0,
      "byteOffset": 192,
      "byteLength": 192
    },
    {
      "buffer": 0,
      "byteOffset": 384,
      "byteLength": 256
    },
    {
      "buffer": 0,
      "byteOffset": 640,
      "byteLength": 128
    },
    {
      "buffer": 0,
      "byteOffset": 768,
      "byteLength": 48
    },
    {
      "buffer": 0,
      "byteOffset": 816,
      "byteLength": 22476
    },
    {
      "buffer": 0,
      "byteOffset": 23292,
      "byteLength": 22476
    },
    {
      "buffer": 0,
      "byteOffset": 45768,
      "byteLength": 29968
    },
    {
      "buffer": 0,
      "byteOffset": 75736,
      "byteLength": 14984
    },
    {
      "buffer": 0,
      "byteOffset": 90720,
      "byteLength": 8886
    },
    {
      "buffer": 0,
      "byteOffset": 99606,
      "byteLength": 900
    },
    {
      "buffer": 0,
      "byteOffset": 100506,
      "byteLength": 900
    },
    {
      "buffer": 0,
      "byteOffset": 101406,
      "byteLength": 1200
    },
    {
      "buffer": 0,
      "byteOffset": 102606,
      "byteLength": 600
    },
    {
      "buffer": 0,
      "byteOffset": 103206,
      "byteLength": 183
    },
    {
      "buffer": 0,
      "byteOffset": 103389,
      "byteLength": 1224
    },
    {
      "buffer": 0,
      "byteOffset": 104613,
      "byteLength": 1224
    },
    {
      "buffer": 0,
      "byteOffset": 105837,
      "byteLength": 1632
    },
    {
      "buffer": 0,
      "byteOffset": 107469,
      "byteLength": 816
    },
    {
      "buffer": 0,
      "byteOffset": 108285,
      "byteLength": 270
    },
    {
      "buffer": 0,
      "byteOffset": 108555,
      "byteLength": 1392
    },
    {
      "buffer": 0,
      "byteOffset": 109947,
      "byteLength": 1392
    },
    {
      "buffer": 0,
      "byteOffset": 111339,
      "byteLength": 1856
    },
    {
      "buffer": 0,
      "byteOffset": 113195,
      "byteLength": 928
    },
    {
      "buffer": 0,
      "byteOffset": 114123,
      "byteLength": 276
    },
    {
      "buffer": 0,
      "byteOffset": 114399,
      "byteLength": 672
    },
    {
      "buffer": 0,
      "byteOffset": 115071,
      "byteLength": 672
    },
    {
      "buffer": 0,
      "byteOffset": 115743,
      "byteLength": 896
    },
    {
      "buffer": 0,
      "byteOffset": 116639,
      "byteLength": 448
    },
    {
      "buffer": 0,
      "byteOffset": 117087,
      "byteLength": 144
    },
    {
      "buffer": 0,
      "byteOffset": 117231,
      "byteLength": 9168
    },
    {
      "buffer": 0,
      "byteOffset": 126399,
      "byteLength": 9168
    },
    {
      "buffer": 0,
      "byteOffset": 135567,
      "byteLength": 12224
    },
    {
      "buffer": 0,
      "byteOffset": 147791,
      "byteLength": 6112
    },
    {
      "buffer": 0,
      "byteOffset": 153903,
      "byteLength": 2592
    },
    {
      "buffer": 0,
      "byteOffset": 156495,
      "byteLength": 2064
    }
  ],
  "materials": [
    {
      "pbrMetallicRoughness": {
        "baseColorFactor": [
          0.0,
          0.09174345,
          1.0,
          1.0
        ],
        "metallicFactor": 0.0,
        "roughnessFactor": 0.5
      },
      "doubleSided": true,
      "name": "Blue"
    },
    {
      "pbrMetallicRoughness": {
        "metallicFactor": 0.0,
        "roughnessFactor": 0.5
      },
      "doubleSided": true,
      "name": "WhitePlastic"
    },
    {
      "pbrMetallicRoughness": {
        "baseColorFactor": [
          0.0,
          0.0,
          0.0,
          1.0
        ],
        "metallicFactor": 0.0
      },
      "doubleSided": true,
      "name": "BlackPlastic"
    },
    {
      "pbrMetallicRoughness": {
        "metallicFactor": 0.0,
        "roughnessFactor": 0.5
      },
      "emissiveFactor": [
        1.0,
        1.0,
        1.0
      ],
      "doubleSided": true,
      "name": "Light"
    },
    {
      "pbrMetallicRoughness": {
        "baseColorFactor": [
          0.509434,
          0.509434,
          0.509434,
          1.0
        ],
        "metallicFactor": 0.0,
        "roughnessFactor": 0.5
      },
      "doubleSided": true,
      "name": "GrayMetal"
    }
  ],
  "meshes": [
    {
      "primitives": [
        {
          "attributes": {
            "POSITION": 0,
            "NORMAL": 1,
            "TANGENT": 2,
            "TEXCOORD_0": 3
          },
          "indices": 4,
          "material": 0
        }
      ],
      "name": "Blue"
    },
    {
      "primitives": [
        {
          "attributes": {
            "POSITION": 5,
            "NORMAL": 6,
            "TANGENT": 7,
            "TEXCOORD_0": 8
          },
          "indices": 9,
          "material": 1
        }
      ],
      "name": "Body_WhitePlastic_DONE"
    },
    {
      "primitives": [
        {
          "attributes": {
            "POSITION": 10,
            "NORMAL": 11,
            "TANGENT": 12,
            "TEXCOORD_0": 13
          },
          "indices": 14,
          "material": 2
        }
      ],
      "name": "Floor_WhitePlastic"
    },
    {
      "primitives": [
        {
          "attributes": {
            "POSITION": 15,
            "NORMAL": 16,
            "TANGENT": 17,
            "TEXCOORD_0": 18
          },
          "indices": 19,
          "material": 2
        }
      ],
      "name": "Glass"
    },
    {
      "primitives": [
        {
          "attributes": {
            "POSITION": 20,
            "NORMAL": 21,
            "TANGENT": 22,
            "TEXCOORD_0": 23
          },
          "indices": 24,
          "material": 3
        }
      ],
      "name": "Light"
    },
    {
      "primitives": [
        {
          "attributes": {
            "POSITION": 25,
            "NORMAL": 26,
            "TANGENT": 27,
            "TEXCOORD_0": 28
          },
          "indices": 29,
          "material": 4
        }
      ],
      "name": "Rim"
    },
    {
      "primitives": [
        {
          "attributes": {
            "POSITION": 30,
            "NORMAL": 31,
            "TANGENT": 32,
            "TEXCOORD_0": 33
          },
          "indices": 34,
          "material": 2
        },
        {
          "attributes": {
            "POSITION": 30,
            "NORMAL": 31,
            "TANGENT": 32,
            "TEXCOORD_0": 33
          },
          "indices": 35,
          "material": 2
        }
      ],
      "name": "Wheel"
    }
  ],
  "nodes": [
    {
      "children": [
        1,
        2,
        3,
        4,
        5,
        6,
        7
      ],
      "rotation": [
        0.0,
        0.0,
        0.0,
        -1.0
      ],
      "name": "Xbus2"
    },
    {
      "mesh": 0,
      "rotation": [
        3.18119959E-07,
        0.7071068,
        -0.707106769,
        1.25824982E-07
      ],
      "scale": [
        0.0254,
        0.0254,
        0.0254
      ],
      "name": "Blue"
    },
    {
      "mesh": 1,
      "rotation": [
        3.02930431E-07,
        0.7071068,
        -0.707106769,
        1.080013E-07
      ],
      "scale": [
        0.0254,
        0.0254,
        0.0254
      ],
      "name": "Body_WhitePlastic_DONE"
    },
    {
      "mesh": 2,
      "rotation": [
        3.02930431E-07,
        0.7071068,
        -0.707106769,
        1.080013E-07
      ],
      "scale": [
        0.0254,
        0.0254,
        0.0254
      ],
      "name": "Floor_WhitePlastic"
    },
    {
      "mesh": 3,
      "rotation": [
        3.79321648E-07,
        0.7071068,
        -0.7071067,
        1.88257815E-07
      ],
      "scale": [
        0.0254,
        0.0254,
        0.0254
      ],
      "name": "Glass"
    },
    {
      "mesh": 4,
      "rotation": [
        3.18119959E-07,
        0.7071068,
        -0.707106769,
        1.25824982E-07
      ],
      "scale": [
        0.0254,
        0.0254,
        0.0254
      ],
      "name": "Light"
    },
    {
      "mesh": 5,
      "rotation": [
        -0.7071068,
        0.0,
        0.0,
        -0.7071068
      ],
      "scale": [
        0.0254,
        0.0254,
        0.0254
      ],
      "name": "Rim"
    },
    {
      "mesh": 6,
      "rotation": [
        -0.7071068,
        0.0,
        0.0,
        -0.7071068
      ],
      "scale": [
        0.0254,
        0.0254,
        0.0254
      ],
      "name": "Wheel"
    }
  ],
  "scene": 0,
  "scenes": [
    {
      "nodes": [
        0
      ],
      "name": "Xbus2"
    }
  ]
}